<?xml version='1.0' encoding='utf-8'?>
<mxfile><diagram name="ER Diagram"><mxGraphModel><root><mxCell id="0" /><mxCell id="1" parent="0" /><mxCell id="2" value="JiraIssue" style="shape=rectangle" parent="1" vertex="1"><mxGeometry x="100" y="100" width="160" height="80" as_="geometry" /></mxCell><mxCell id="3" value="IssueID" style="text" parent="1" vertex="1"><mxGeometry x="110" y="120" width="140" height="20" as_="geometry" /></mxCell><mxCell id="4" value="Summary" style="text" parent="1" vertex="1"><mxGeometry x="110" y="140" width="140" height="20" as_="geometry" /></mxCell><mxCell id="5" value="Status" style="text" parent="1" vertex="1"><mxGeometry x="110" y="160" width="140" height="20" as_="geometry" /></mxCell><mxCell id="6" value="Assignee" style="text" parent="1" vertex="1"><mxGeometry x="110" y="180" width="140" height="20" as_="geometry" /></mxCell><mxCell id="7" value="CreatedDate" style="text" parent="1" vertex="1"><mxGeometry x="110" y="200" width="140" height="20" as_="geometry" /></mxCell><mxCell id="7" value="Transition" style="shape=rectangle" parent="1" vertex="1"><mxGeometry x="100" y="250" width="160" height="80" as_="geometry" /></mxCell><mxCell id="8" value="TransitionID" style="text" parent="1" vertex="1"><mxGeometry x="110" y="270" width="140" height="20" as_="geometry" /></mxCell><mxCell id="9" value="FromState" style="text" parent="1" vertex="1"><mxGeometry x="110" y="290" width="140" height="20" as_="geometry" /></mxCell><mxCell id="10" value="ToState" style="text" parent="1" vertex="1"><mxGeometry x="110" y="310" width="140" height="20" as_="geometry" /></mxCell><mxCell id="11" value="FieldsUpdated" style="text" parent="1" vertex="1"><mxGeometry x="110" y="330" width="140" height="20" as_="geometry" /></mxCell><mxCell id="11" value="Fields" style="shape=rectangle" parent="1" vertex="1"><mxGeometry x="100" y="400" width="160" height="80" as_="geometry" /></mxCell><mxCell id="12" value="FieldID" style="text" parent="1" vertex="1"><mxGeometry x="110" y="420" width="140" height="20" as_="geometry" /></mxCell><mxCell id="13" value="FieldName" style="text" parent="1" vertex="1"><mxGeometry x="110" y="440" width="140" height="20" as_="geometry" /></mxCell><mxCell id="14" value="FieldValue" style="text" parent="1" vertex="1"><mxGeometry x="110" y="460" width="140" height="20" as_="geometry" /></mxCell><mxCell id="14" value="has" style="edgeStyle=elbowEdgeStyle" parent="1" edge="1" source="2" target="7"><mxGeometry relative="1" as_="geometry" /></mxCell><mxCell id="15" value="updates" style="edgeStyle=elbowEdgeStyle" parent="1" edge="1" source="7" target="11"><mxGeometry relative="1" as_="geometry" /></mxCell></root></mxGraphModel></diagram></mxfile>